<?xml version="1.0" encoding="utf-8"?>
<!-- Generator: Adobe Illustrator 17.0.0, SVG Export Plug-In . SVG Version: 6.00 Build 0)  -->
<!DOCTYPE svg PUBLIC "-//W3C//DTD SVG 1.1//EN" "http://www.w3.org/Graphics/SVG/1.1/DTD/svg11.dtd">
<svg version="1.1" id="Layer_1" xmlns="http://www.w3.org/2000/svg" xmlns:xlink="http://www.w3.org/1999/xlink" x="0px" y="0px"
	 width="640.634px" height="298.587px" viewBox="0 0 640.634 298.587" enable-background="new 0 0 640.634 298.587"
	 xml:space="preserve">
<path fill-rule="evenodd" clip-rule="evenodd" d="M505.488,247.973h87.446v-31.838h-55.162h-2.925v-2.937V56.625h-29.358V247.973z
	 M368,56.625v191.348h88.794v-31.838h-56.716h-2.914v-2.937v-49.643v-2.926h2.914h52.099v-31.861h-52.099h-2.914v-2.925V91.4v-2.937
	h2.914h56.716V56.625H368z M281.354,106.53c0.366,2.308,0.548,4.788,0.548,7.382c0,2.868-0.148,5.531-0.434,7.885
	c-0.274,2.4-0.743,4.583-1.348,6.503c-0.606,1.942-1.406,3.771-2.32,5.394c-0.926,1.657-2.057,3.211-3.303,4.571l-0.011-0.011
	c-1.371,1.589-2.903,2.925-4.56,3.954h-0.011c-1.691,1.051-3.565,1.851-5.554,2.308c-1.817,0.434-3.828,0.789-6.046,1.017
	c-2.217,0.217-4.571,0.332-7.028,0.332h-10.011h-2.914v-2.926V89.766V86.84h2.914h11.702c1.909,0,3.817,0.057,5.623,0.137h0.023
	c1.714,0.091,3.325,0.24,4.754,0.434c1.486,0.183,2.983,0.548,4.365,1.017h0.011c1.44,0.48,2.811,1.12,4.046,1.851l0.023,0.023
	c1.817,1.132,3.405,2.56,4.72,4.194c1.303,1.623,2.366,3.508,3.142,5.577C280.417,102.028,280.988,104.199,281.354,106.53z
	 M294.381,247.973h36.158l-44.58-79.595l-1.303-2.331l2.194-1.509c3.862-2.64,7.337-5.76,10.377-9.279v-0.011
	c3.074-3.543,5.782-7.588,8.079-12.068c2.297-4.446,4.023-9.611,5.165-15.439c1.154-5.92,1.748-12.57,1.748-19.93
	c0-5.177-0.354-9.931-1.063-14.136c-0.686-4.171-1.749-7.908-3.12-11.119c-1.383-3.257-3.028-6.263-4.902-8.937
	c-1.817-2.629-3.931-5.04-6.274-7.142c-2.251-2-4.64-3.657-7.074-4.971c-2.457-1.314-5.04-2.297-7.622-2.937
	c-2.777-0.64-5.794-1.143-9.017-1.463c-3.211-0.32-6.765-0.48-10.617-0.48h-53.333v191.348h29.164v-69.504v-2.926h2.914h12.456
	h1.737l0.834,1.543L294.381,247.973z M133.157,181.029c0.469,2.583,0.709,5.485,0.709,8.662c0,2.514-0.206,4.937-0.594,7.234v0.011
	c-0.4,2.286-1.017,4.503-1.817,6.571c-0.846,2.16-1.988,4.103-3.337,5.737c-1.36,1.68-3.017,3.108-4.857,4.24l-0.012,0.011
	c-2,1.2-4.011,2.16-6.011,2.811v-0.012c-2.046,0.674-4.08,1.074-6.046,1.188c-1.725,0.08-4.297,0.149-7.577,0.194h-0.023
	l-11.519,0.069l-0.011,0.012h-1.886h-2.926v-2.926v-49.368v-2.937h2.926h6.468l0.012,0.011l8.457,0.034h0.046l6.548,0.148h0.046
	c2.022,0.069,3.885,0.297,5.497,0.64l0.023,0.011c1.703,0.377,3.211,0.925,4.491,1.611c2,1.006,3.794,2.286,5.291,3.76l0.023,0.023
	c1.508,1.497,2.811,3.303,3.84,5.314h0.011C131.912,176,132.677,178.331,133.157,181.029z M124.541,104.028
	c0.308,1.817,0.48,3.622,0.48,5.371c0,2.251-0.148,4.411-0.434,6.479c-0.286,2.057-0.743,4-1.314,5.794v0.011
	c-0.628,1.954-1.554,3.714-2.709,5.246l-0.011,0.011c-1.177,1.543-2.617,2.891-4.24,3.965l-0.023,0.012
	c-1.474,0.96-2.949,1.725-4.366,2.263l-0.034,0.011c-1.508,0.548-3.005,0.891-4.445,0.994c-1.166,0.091-2.903,0.171-5.143,0.205
	h-0.023l-7.657,0.069l-0.023,0.012h-4.423h-2.926v-2.926v-41.78V86.84h2.926h2.434l0.011,0.011l8.228,0.034h0.057l5.908,0.137h0.057
	c1.783,0.069,3.497,0.354,5.085,0.8c1.588,0.446,3.097,1.109,4.468,1.965v-0.011c1.566,0.926,2.926,2.194,4.057,3.725
	c1.063,1.428,1.954,3.166,2.628,5.12v0.011c0.617,1.817,1.108,3.634,1.417,5.382L124.541,104.028z M163.258,203.884h-0.011
	c0.617-4.137,0.948-8.605,0.948-13.382c0-6.48-0.64-12.285-1.863-17.336c-1.211-4.994-3.04-9.348-5.44-13.016
	c-2.4-3.657-5.211-6.719-8.388-9.119c-3.154-2.4-6.754-4.205-10.719-5.382l-2.091-0.629v-2.171v-1.086v-1.657l1.44-0.857
	c2.731-1.6,5.188-3.668,7.325-6.182c2.137-2.526,4.045-5.554,5.622-9.062l0.011-0.011c1.611-3.52,2.834-7.337,3.646-11.382
	c0.8-4.091,1.223-8.468,1.223-13.073c0-4.011-0.297-7.783-0.891-11.256c-0.583-3.474-1.463-6.719-2.629-9.691
	c-1.131-2.926-2.571-5.6-4.297-7.931c-1.691-2.297-3.691-4.331-5.954-6.045c-2.126-1.611-4.377-2.983-6.685-4.046
	c-2.297-1.063-4.686-1.863-7.074-2.343h-0.023c-2.503-0.537-5.657-0.948-9.416-1.2h-0.012c-3.783-0.274-8.24-0.4-13.348-0.4H58.088
	v191.348h53.105c4.697,0,8.994-0.308,12.845-0.88v0.011c3.782-0.583,7.154-1.463,10.114-2.628c2.88-1.131,5.702-2.697,8.399-4.64
	h0.012c2.708-1.943,5.325-4.297,7.828-7.051c2.08-2.297,3.977-4.88,5.622-7.737c1.657-2.891,3.143-6.114,4.4-9.668
	C161.681,211.815,162.63,207.975,163.258,203.884z M0,0h640.634v298.587H0V0z"/>
</svg>
